<svg xmlns="http://www.w3.org/2000/svg" xmlns:xlink="http://www.w3.org/1999/xlink" viewBox="0,0,256,256" width="50px" height="50px"><g fill-opacity="0.83922" fill="#6c6f73" fill-rule="nonzero" stroke="none" stroke-width="1" stroke-linecap="butt" stroke-linejoin="miter" stroke-miterlimit="10" stroke-dasharray="" stroke-dashoffset="0" font-family="none" font-weight="none" font-size="none" text-anchor="none" style="mix-blend-mode: normal"><g transform="scale(5.12,5.12)"><path d="M13,0c-1.09375,0 -2,0.90625 -2,2v7.6875c-0.05859,0.19531 -0.05859,0.39844 0,0.59375v29.40625c-0.05859,0.19531 -0.05859,0.39844 0,0.59375v7.71875c0,1.09375 0.90625,2 2,2h24c1.09375,0 2,-0.90625 2,-2v-7.8125c0.02734,-0.13281 0.02734,-0.27344 0,-0.40625v-29.59375c0.02734,-0.13281 0.02734,-0.27344 0,-0.40625v-7.78125c0,-1.09375 -0.90625,-2 -2,-2zM13,2h24v7h-24zM16.1875,3.03125c0.03516,0.09766 0.05469,0.16797 0.0625,0.34375v4.15625c-0.00781,0.17578 -0.02734,0.24609 -0.0625,0.34375h0.625c-0.03516,-0.09766 -0.05078,-0.16797 -0.0625,-0.34375v-2.0625c0,-0.15625 0.08594,-0.12109 0.15625,-0.03125l2.09375,2.4375h0.625l-2.15625,-2.53125c-0.05469,-0.0625 -0.04687,-0.15625 0.03125,-0.15625h0.21875c0.59375,0 1.09375,-0.5 1.09375,-1.09375c0,-0.59375 -0.5,-1.0625 -1.09375,-1.0625zM21.875,3.03125c-1.33594,0 -2.40625,1.10156 -2.40625,2.4375c0,1.33594 1.07031,2.40625 2.40625,2.40625c1.33594,0 2.4375,-1.07031 2.4375,-2.40625c0,-1.33984 -1.10156,-2.4375 -2.4375,-2.4375zM25.3125,3.03125c0.03516,0.09766 0.05469,0.16797 0.0625,0.34375v4.15625c-0.00781,0.17578 -0.02734,0.24609 -0.0625,0.34375h1.75l0.375,-0.5625c-0.24609,0.13281 -0.76953,0.125 -1.09375,0.125c-0.32422,0 -0.46875,-0.17187 -0.46875,-0.3125v-3.75c0.00781,-0.17578 0.02734,-0.24609 0.0625,-0.34375zM28.65625,3.03125c0.03516,0.09766 0.05469,0.16797 0.0625,0.34375v4.15625c-0.00781,0.17578 -0.02734,0.24609 -0.0625,0.34375h1.75l0.34375,-0.5625c-0.24219,0.13281 -0.73828,0.125 -1.0625,0.125c-0.32422,0 -0.46875,-0.17187 -0.46875,-0.3125v-3.75c0.00781,-0.17578 0.02734,-0.24609 0.0625,-0.34375zM32.8125,3.15625c-0.26953,0 -1.01953,0.13281 -1.0625,0.9375c-0.03516,0.66406 0.42969,0.99219 0.59375,1.125c0.23438,0.17578 0.82422,0.65625 1.09375,1.03125c0.26953,0.375 0.4375,1.13672 -0.53125,1.25c-0.33203,0 -0.70703,-0.14844 -0.90625,-0.28125l0.0625,0.6875c0.19922,-0.03516 0.32031,-0.01172 0.40625,0c0.14844,0.01563 0.37109,0.07031 0.5625,0.0625c0.19141,-0.00781 1.15625,-0.17187 1.15625,-1.125c0,-0.83984 -0.57812,-1.24609 -0.8125,-1.4375c-0.16406,-0.12109 -0.69922,-0.62109 -0.90625,-0.78125c-0.15625,-0.12109 -0.43359,-0.98047 0.34375,-1c0.39063,-0.00781 0.74219,0.29688 0.875,0.375l0.21875,-0.5625c-0.09766,-0.01562 -0.21094,-0.05469 -0.375,-0.125c-0.15625,-0.06641 -0.44922,-0.15625 -0.71875,-0.15625zM16.75,3.5h0.96875c0.32422,0 0.59375,0.26953 0.59375,0.59375c0,0.32422 -0.26953,0.59375 -0.59375,0.59375h-0.96875zM21.875,3.5c1.07813,0 1.96875,0.89063 1.96875,1.96875c0,1.07813 -0.89062,1.9375 -1.96875,1.9375c-1.07812,0 -1.9375,-0.85937 -1.9375,-1.9375c0,-1.07812 0.85938,-1.96875 1.9375,-1.96875zM13,11h24v28h-24zM16.375,12.90625c0.26953,0.38672 0.46875,0.51563 0.46875,1.40625v18.375c0,0.89063 -0.38672,1.30078 -0.65625,1.6875h3.28125c-0.26953,-0.38672 -0.65625,-0.79687 -0.65625,-1.6875v-6.75c2.21875,-0.03516 4.07813,-0.41016 5.5625,-1c2.26172,2.42578 2.52344,5.96875 2.5625,6.9375c0.03906,0.96875 -0.44531,1.80469 -1.21875,2.5h4.28125c-0.65625,-0.34766 -0.89844,-1.26562 -0.9375,-2.15625c-0.42578,-4.02344 -2.64453,-7.1875 -3.1875,-8c2.55078,-1.52734 3.65625,-3.86719 3.65625,-6.03125c0,-3.60156 -3.16016,-5.28125 -5.90625,-5.28125zM18.8125,14.15625h4.25c2.94141,0 3.91406,1.87109 3.875,3.84375c-0.19531,5.46094 -5.60937,6.28125 -8.125,6.28125zM20.25,14.96875c0.27344,0.38672 0.46875,0.54688 0.46875,1.4375v7.25c0.63672,-0.05859 1.52344,-0.34375 1.96875,-0.5v-6.90625h3.5c-0.19531,-0.48437 -0.73828,-1.04687 -1.125,-1.28125zM29.21875,15.21875c0,0 0.70313,1.28906 0.8125,2.21875c0,0 1.60938,1.76563 0.375,4.875c-0.95703,2.40234 -3.15625,3.1875 -3.15625,3.1875l0.78125,1.625c0,0 0.12109,-0.02734 0.3125,-0.09375c0.48828,0.55469 2.40234,2.98828 2.5,6.78125c0,0 0.14453,1.53125 -1.25,2.625h4.25c0,0 -0.5625,-0.32812 -0.78125,-1.3125c-0.21875,-0.98437 -0.16406,-2.70312 -1.09375,-4.78125c-0.74609,-1.67187 -1.78516,-3.42187 -2.15625,-4.03125c1.12891,-0.69141 2.52344,-1.89844 3.28125,-3.9375c1.42188,-3.82422 -1.30469,-6.66406 -3.875,-7.15625zM22.6875,25.96875c-0.26953,0.09766 -1.46484,0.28516 -1.96875,0.34375v8.5c0,0.89063 -0.38672,1.30078 -0.65625,1.6875h3.28125c-0.26953,-0.38672 -0.65625,-0.79687 -0.65625,-1.6875v-6.75c1.01953,-0.01562 2.01172,-0.10547 2.875,-0.25c-0.11719,-0.39453 -0.53516,-1.24219 -0.75,-1.59375c-0.78906,0.13281 -1.54297,0.1875 -2.125,0.1875zM13,41h24v7h-24zM15.875,42.0625c0.03516,0.09766 0.05469,0.19922 0.0625,0.375v4.125c-0.00781,0.17578 -0.02734,0.27734 -0.0625,0.375h0.625c-0.03516,-0.09766 -0.05469,-0.19922 -0.0625,-0.375v-2.03125c0,-0.15625 0.08594,-0.14844 0.15625,-0.0625l2.09375,2.46875h0.625l-2.15625,-2.5625c-0.05078,-0.0625 -0.04687,-0.15625 0.03125,-0.15625h0.21875c0.59375,0 1.09375,-0.46875 1.09375,-1.0625c0,-0.59375 -0.5,-1.09375 -1.09375,-1.09375zM29.6875,42.0625c-1.33594,0 -2.40625,1.16406 -2.40625,2.5c0,1.33984 1.07031,2.53125 2.40625,2.53125c0.51953,0 1.01172,0 1.40625,-0.28125l-0.03125,-0.59375c-0.35156,0.35156 -0.83594,0.40625 -1.375,0.40625c-1.07812,0 -1.9375,-0.98437 -1.9375,-2.0625c0,-1.07812 0.85938,-2.03125 1.9375,-2.03125c0.48828,0 0.94141,0.14844 1.3125,0.4375l-0.0625,-0.59375c-0.37891,-0.23828 -0.76953,-0.3125 -1.25,-0.3125zM24.125,42.125l1.28125,2.3125v2.1875c-0.00781,0.17578 -0.02734,0.27734 -0.0625,0.375h0.625c-0.03516,-0.09766 -0.05469,-0.19922 -0.0625,-0.375v-2.1875l1.3125,-2.3125h-0.5625l-0.96875,1.75l-1,-1.75zM32.09375,42.125c0.03516,0.09766 0.05469,0.19922 0.0625,0.375v4.125c-0.00781,0.17578 -0.02734,0.27734 -0.0625,0.375h1.75l0.34375,-0.59375c-0.24219,0.13281 -0.73828,0.15625 -1.0625,0.15625c-0.32422,0 -0.46875,-0.17187 -0.46875,-0.3125v-1.59375c0,-0.19141 0.10156,-0.25 0.25,-0.25h0.875v-0.5h-0.875c-0.14844,0 -0.25,-0.05859 -0.25,-0.25v-0.78125c0,-0.14062 0.14453,-0.28125 0.46875,-0.28125c0.32422,0 0.59766,-0.00781 0.84375,0.125l-0.125,-0.59375zM21.5625,42.15625c-1.33594,0 -2.40625,1.07031 -2.40625,2.40625c0,1.33594 1.07031,2.4375 2.40625,2.4375c1.33594,0 2.4375,-1.10156 2.4375,-2.4375c0,-1.33594 -1.10156,-2.40625 -2.4375,-2.40625zM16.4375,42.5625h0.96875c0.32422,0 0.59375,0.23828 0.59375,0.5625c0,0.32422 -0.26953,0.59375 -0.59375,0.59375h-0.96875zM21.5625,42.625c1.07813,0 1.96875,0.85938 1.96875,1.9375c0,1.07813 -0.89062,1.96875 -1.96875,1.96875c-1.07812,0 -1.9375,-0.89062 -1.9375,-1.96875c0,-1.07812 0.85938,-1.9375 1.9375,-1.9375z"></path></g></g></svg>