<svg xmlns="http://www.w3.org/2000/svg" xmlns:xlink="http://www.w3.org/1999/xlink" viewBox="0,0,256,256" width="50px" height="50px"><g fill-opacity="0.83922" fill="#6c6f73" fill-rule="nonzero" stroke="none" stroke-width="1" stroke-linecap="butt" stroke-linejoin="miter" stroke-miterlimit="10" stroke-dasharray="" stroke-dashoffset="0" font-family="none" font-weight="none" font-size="none" text-anchor="none" style="mix-blend-mode: normal"><g transform="scale(5.12,5.12)"><path d="M25,3c-12.13842,0 -22,9.86158 -22,22c0,12.13842 9.86158,22 22,22c12.13842,0 22,-9.86158 22,-22c0,-12.13842 -9.86158,-22 -22,-22zM25,5c11.05754,0 20,8.94246 20,20c0,11.05754 -8.94246,20 -20,20c-11.05754,0 -20,-8.94246 -20,-20c0,-11.05754 8.94246,-20 20,-20zM23.76172,6v4.05273h1.24805v-1.36523l1.00781,1.36523l1.64258,0.23828l-1.42383,-1.82031c0.313,-0.064 0.89844,-0.39203 0.89844,-1.08203c0,-1.035 -0.9422,-1.36719 -1.5332,-1.36719zM25.33984,6.88867c0.34,0 0.5808,0.22756 0.5918,0.47656c0.011,0.249 -0.16387,0.51953 -0.54687,0.51953h-0.39648l-0.02148,-0.97461zM31.15625,7.11914c-1.076,0.022 -1.98808,0.66861 -2.20508,1.72461c-0.217,1.051 0.74773,2.29459 1.92773,2.55859c1.28,0.288 2.47319,-0.31373 2.74219,-1.67773c0.23,-1.169 -0.63778,-2.31755 -1.92578,-2.56055c-0.158,-0.03 -0.3157,-0.04392 -0.4707,-0.04492c-0.022,0 -0.04636,-0.001 -0.06836,0zM16.11914,8.18945l-1.11719,0.58398l0.52539,4.57422l1.18555,-0.86719l-0.1543,-0.69336l1.29297,-0.75976l0.58984,0.43555l1.35938,-0.54297zM31.25195,8.24023c0.075,0 0.15247,0.00748 0.23047,0.02148c0.622,0.117 1.0162,0.64889 0.9082,1.21289c-0.109,0.563 -0.68073,0.94608 -1.30273,0.83008c-0.622,-0.117 -0.92931,-0.71334 -0.82031,-1.27734c0.095,-0.493 0.45137,-0.78911 0.98438,-0.78711zM16.16211,9.64063l0.94141,0.7168l-0.67773,0.38867zM36.99219,10.22656l-3.50586,2.40625l1.0293,0.80078l1.6875,-1.30078l-0.85547,2.10156l0.4375,0.41211l2.14844,-0.86719l-1.29297,1.73438l0.78906,1.10352l2.47461,-3.50977l-0.78906,-0.93164l-2.01367,0.80274l0.81055,-2.01562zM25,11c-7.72606,0 -14,6.27394 -14,14c0,7.72606 6.27394,14 14,14c7.72606,0 14,-6.27394 14,-14c0,-7.72606 -6.27394,-14 -14,-14zM11.86914,11.20117l-1.70899,1.94922l2.97852,2.62305l0.83398,-0.95313l-1.14062,-0.99805l0.83203,-0.88867l-0.72266,-0.65039l-0.83203,0.91211l-0.41602,-0.39062l0.89844,-0.97656zM25,12c7.18562,0 13,5.81438 13,13c0,7.18562 -5.81438,13 -13,13v-12v-3zM24,12.05078v10.94922h-4v-10.00195c1.24603,-0.51902 2.59251,-0.84008 4,-0.94727zM17,14.76367v8.23633h-4.83203c0.51547,-3.3362 2.28984,-6.24752 4.83203,-8.23633zM28.95508,15.11523c-0.212,0 -0.38281,0.16991 -0.38281,0.37891c0,0.209 0.17181,0.37891 0.38281,0.37891c0.211,0 0.38477,-0.16991 0.38477,-0.37891c0,-0.21 -0.17277,-0.37891 -0.38477,-0.37891zM29.93555,15.11523c-0.212,0 -0.38477,0.16991 -0.38477,0.37891c0,0.209 0.17377,0.37891 0.38477,0.37891c0.212,0 0.38281,-0.16991 0.38281,-0.37891c0,-0.21 -0.16981,-0.37891 -0.38281,-0.37891zM30.91211,15.11523c-0.212,0 -0.38281,0.16991 -0.38281,0.37891c0,0.209 0.17181,0.37891 0.38281,0.37891c0.212,0 0.38477,-0.16991 0.38477,-0.37891c0,-0.209 -0.17177,-0.37891 -0.38477,-0.37891zM31.89258,15.11523c-0.212,0 -0.38477,0.16991 -0.38477,0.37891c0,0.209 0.17377,0.37891 0.38477,0.37891c0.212,0 0.38281,-0.16991 0.38281,-0.37891c0,-0.209 -0.17081,-0.37891 -0.38281,-0.37891zM32.87109,15.11523c-0.212,0 -0.38477,0.16991 -0.38477,0.37891c0,0.209 0.17377,0.37891 0.38477,0.37891c0.211,0 0.38477,-0.16991 0.38477,-0.37891c0,-0.209 -0.17276,-0.37891 -0.38477,-0.37891zM28.67969,16.10742v0.61523h4.4668v-0.61523zM41.85352,16.33789l-3.72266,1.49414l1.05078,2.42773l0.98438,-0.41211l-0.54687,-1.23633l0.46094,-0.21484l0.52539,1.19141l0.89844,-0.36914l-0.50391,-1.14844l0.4375,-0.19336l0.52539,1.23438l0.91992,-0.36914zM7.83789,16.79297l-0.52344,1.14844l3.63281,1.66797l1.16211,-2.3418l-0.89648,-0.45508l-0.70117,1.21484zM28.67969,16.93555v0.61523h4.4668v-0.61523zM27.00586,17.65234c-0.014,0.001 -0.02706,0.00186 -0.03906,0.00586c-0.05,0.012 -0.09981,0.04861 -0.13281,0.09961c-0.067,0.102 -0.09534,0.21847 0.09766,0.35547l0.00195,0.00195l0.00391,0.00391l0.42383,0.31836c0.145,0.103 0.35547,0.27917 0.35547,0.57617v0.00195v0.00195l-0.01172,0.67578c0,0.144 -0.05217,0.31283 -0.20117,0.42383c-0.148,0.111 -0.3595,0.12359 -0.5625,0.05859c-0.144,-0.046 -0.23845,-0.096 -0.31445,-0.125c-0.076,-0.029 -0.14125,-0.04492 -0.28125,-0.04492c-0.195,0 -0.31625,0.07178 -0.40625,0.17578c-0.09,0.104 -0.13672,0.24875 -0.13672,0.34375v0.05078c0,0.095 0.04572,0.2417 0.13672,0.3457c0.09,0.104 0.21125,0.17578 0.40625,0.17578c0.139,0 0.20625,-0.01592 0.28125,-0.04492c0.075,-0.028 0.16945,-0.078 0.31445,-0.125c0.202,-0.065 0.4135,-0.05241 0.5625,0.05859c0.149,0.111 0.20117,0.27492 0.20117,0.41992l0.01172,0.67969v0.00195v0.00195c0,0.296 -0.20361,0.46731 -0.34961,0.57031l-0.42969,0.32422l-0.00195,0.00195l-0.00391,0.00391c-0.193,0.137 -0.1627,0.25447 -0.0957,0.35547c0.034,0.051 0.08181,0.08566 0.13281,0.09766c0.05,0.012 0.10245,0.01303 0.18945,-0.04297l0.89258,-0.59766c0.112,-0.081 0.19336,-0.23352 0.19336,-0.35352l-0.00977,-0.83398v-0.00195c0,-0.328 0.16777,-0.60578 0.38477,-0.80078c0.128,-0.115 0.27564,-0.20672 0.43164,-0.26172c-0.157,-0.056 -0.30364,-0.14672 -0.43164,-0.26172c-0.217,-0.195 -0.38477,-0.47378 -0.38477,-0.80078v-0.00195l0.00977,-0.83203c0,-0.12 -0.07355,-0.26861 -0.18555,-0.34961l-0.89844,-0.60156c-0.065,-0.043 -0.1133,-0.05278 -0.1543,-0.05078zM34.81055,18.22266c-0.235,0.212 -0.56431,0.35066 -0.94531,0.34766h-1.45898v0.21875c0,0.175 -0.0978,0.3133 -0.2168,0.4043c-0.12,0.09 -0.26955,0.14453 -0.43555,0.14453h-3l-0.00195,0.14844c0,0.15 0.08284,0.30288 0.21484,0.42188c0.133,0.119 0.31092,0.1875 0.41992,0.1875h2.45703c0.095,0 0.1902,0.02098 0.2832,0.08398c0.126,0.106 0.17773,0.19514 0.17773,0.36914c0,0.169 -0.08474,0.30319 -0.17773,0.36719c-0.093,0.064 -0.1882,0.08594 -0.2832,0.08594h-2.45703c-0.11,0 -0.28792,0.06655 -0.41992,0.18555c-0.132,0.119 -0.21484,0.26992 -0.21484,0.41992l0.00195,0.24414h4.38672c0.225,0 0.42873,0.10009 0.55273,0.24609c0.123,0.146 0.17678,0.32595 0.17578,0.50195c-0.001,0.177 -0.05669,0.35695 -0.17969,0.50195c-0.123,0.145 -0.32483,0.24414 -0.54883,0.24414h-4.11133c-1.436,0 -2.40625,1.20205 -2.40625,2.37305c0,1.402 1.00348,2.33008 2.27148,2.33008h4.53711c0.122,0 0.24341,0.05663 0.31641,0.14063c0.073,0.085 0.10447,0.18425 0.10547,0.28125c0.001,0.097 -0.02756,0.1982 -0.10156,0.2832c-0.074,0.085 -0.19931,0.14063 -0.32031,0.14063h-4.45312c-1.017,0 -1.68945,0.91841 -1.68945,1.69141c0,0.868 0.64197,1.67187 1.79297,1.67187h2.99219c0.087,0 0.169,0.01255 0.25,0.06055c0.079,0.048 0.16406,0.14939 0.16406,0.27539c0,0.125 -0.08306,0.22639 -0.16406,0.27539c-0.08,0.049 -0.164,0.0625 -0.25,0.0625h-1.91016c-0.21,0 -0.49498,0.0963 -0.70898,0.2793c-0.215,0.183 -0.36523,0.43597 -0.36523,0.79297c0,0.388 0.15009,0.65766 0.37109,0.84766c0.222,0.19 0.52002,0.29102 0.79102,0.29102h0.77734c0.141,0 0.30623,0.09489 0.36523,0.21289c0.049,0.101 0.04802,0.18481 0.04102,0.25781c0.145,-0.012 0.25212,-0.058 0.32813,-0.125c0.118,-0.104 0.18359,-0.26826 0.18359,-0.44727c0,-0.143 -0.06197,-0.32217 -0.16797,-0.45117c-0.107,-0.128 -0.24083,-0.20703 -0.42383,-0.20703h-1.29492c-0.078,0 -0.16042,-0.01736 -0.23242,-0.06836c-0.072,-0.051 -0.13372,-0.144 -0.13672,-0.25c-0.004,-0.107 0.05781,-0.20772 0.13281,-0.26172c0.075,-0.054 0.15833,-0.07031 0.23633,-0.07031h1.95313c0.559,0 0.88966,-0.15991 1.09766,-0.37891c0.208,-0.22 0.30273,-0.52166 0.30273,-0.84766c0,-0.644 -0.59587,-1.31836 -1.29687,-1.31836h-3.25586c-0.106,0 -0.21811,-0.04805 -0.28711,-0.12305c-0.068,-0.075 -0.09666,-0.16491 -0.09766,-0.25391c0,-0.089 0.02866,-0.18081 0.09766,-0.25781c0.069,-0.075 0.18111,-0.12305 0.28711,-0.12305h4.375c1.485,0 2.33008,-1.05002 2.33008,-2.16602c0,-1.145 -0.81384,-2.11523 -2.33984,-2.11523h-4.24609c-0.124,0 -0.24922,-0.05562 -0.32422,-0.14063c-0.077,-0.085 -0.10837,-0.18711 -0.10937,-0.28711c-0.001,-0.1 0.02947,-0.20402 0.10547,-0.29102c0.077,-0.086 0.20217,-0.14258 0.32617,-0.14258h4.34961c1.8,0 3.67188,-1.58841 3.67188,-3.56641c0,-1.053 -0.32044,-1.76727 -0.77344,-2.32227c-0.403,-0.495 -0.91902,-0.85578 -1.41602,-1.17578zM10.42383,21.14844l-4.27148,1.38672l-0.15234,1.25781l4.05273,2.16602l-0.02344,-1.45117l-0.61133,-0.28125l0.0918,-1.49219l0.7168,-0.17773zM41.83203,21.27734c-1.429,0 -2.14648,1.15936 -2.14648,2.31836c0,1.159 0.84848,2.31836 2.14648,2.31836c1.298,0 2.16797,-1.05036 2.16797,-2.31836c0,-1.246 -0.76097,-2.31836 -2.16797,-2.31836zM41.85938,22.53516c0.631,0 0.99805,0.5835 0.99805,1.0625c0,0.468 -0.38205,1.06055 -0.99805,1.06055c-0.616,0 -0.97656,-0.51355 -0.97656,-1.06055c0,-0.547 0.34556,-1.0625 0.97656,-1.0625zM8.54688,22.9707l-0.05078,0.83203l-1.16016,-0.53125zM12.05078,26h4.94922v9.23633c-2.79368,-2.18555 -4.66347,-5.48399 -4.94922,-9.23633zM20,26h4v11.94922c-1.40749,-0.10719 -2.75397,-0.42824 -4,-0.94727z"></path></g></g></svg>