<svg xmlns="http://www.w3.org/2000/svg" xmlns:xlink="http://www.w3.org/1999/xlink" viewBox="0,0,256,256" width="50px" height="50px"><g fill-opacity="0.83922" fill="#6c6f73" fill-rule="nonzero" stroke="none" stroke-width="1" stroke-linecap="butt" stroke-linejoin="miter" stroke-miterlimit="10" stroke-dasharray="" stroke-dashoffset="0" font-family="none" font-weight="none" font-size="none" text-anchor="none" style="mix-blend-mode: normal"><g transform="scale(5.12,5.12)"><path d="M25,1.98047l-17,3.19141v13.18359c0,0.77344 0.15625,19.09766 16.46484,29.48828l0.53906,0.34375l0.53516,-0.34375c16.27344,-10.44141 16.46094,-28.71875 16.46094,-29.49219v-13.17969zM19,24.10156c0,0 -0.10156,0.59766 -0.30078,0.79688c-0.30078,0.30078 -1.59766,-0.5 -1.59766,-0.5c0,0 0.29688,-0.59766 1.29688,-0.89844c0,0 0,-0.10156 0.10156,-0.30078c0,-0.09766 2,-1.89844 2.19922,-1.89844c0.5,0 1.30078,1.09766 2,1.89844c-0.30078,0.60156 -0.80078,1 -1,1.10156c-0.30078,-0.40234 -0.89844,-1.19922 -1.09766,-1.40234c0,0 -0.60156,0.5 -0.90234,0.80078l-0.30078,0.30078c-0.09766,0.10156 -0.39844,0.10156 -0.39844,0.10156zM23,35c-0.10156,0.10156 -0.30078,0 -0.39844,0c-0.20312,-0.10156 -0.30078,-0.5 -0.30078,-0.5c0,0 -0.40234,0.39844 -0.5,0.39844c-0.40234,0.10156 -1.60156,-1.29687 -1.60156,-1.29687c0,0 0.60156,-0.60156 1.69922,-0.40234c0.20313,0.10156 0.10156,-0.09766 0.30078,-0.19922c0.40234,-0.10156 0.90234,0.30078 1.80078,0c0.19922,-0.10156 0,-1.30078 0.10156,-2.89844c0.09766,0.09766 0.69922,0.59766 0.79688,0.69922c-0.5,1.89844 0.5,2.89844 0.5,2.89844c0.10156,0.19922 0,0.40234 -0.09766,0.60156c-0.40234,0 -1.5,0.19922 -1.80078,0.39844c-0.10156,0 -0.39844,0.19922 -0.5,0.30078zM30.30078,31c-0.10156,0 -0.30078,-0.10156 -0.40234,0.10156c-1.39844,1.69922 -2.5,1.59766 -2.39844,2.89844c0,0.30078 0.5,0.89844 0.5,1c-0.30078,0.19922 -0.80078,1.10156 -0.89844,1.5c0,0.10156 -0.20312,0.5 -0.20312,0.60156c0,0.09766 -0.19922,0.09766 -0.29687,0.19922c-0.10156,0 -0.5,-0.10156 -0.5,-0.10156c0,0 0,0.5 -0.10156,0.60156c-0.30078,0.30078 -2,0.09766 -2,0.09766c0,0 0.19922,-0.79687 1.19922,-1.29687c0.19922,-0.10156 0,-0.20312 0.10156,-0.40234c0.19922,-0.30078 0.30078,-0.39844 0.80078,-1.19922c0.09766,-0.30078 0.09766,-0.60156 -0.60156,-2c-0.5,-0.89844 -0.5,-3.10156 1.5,-3.30078c-0.80078,-0.09766 -1.30078,0.40234 -1.60156,0.69922c-2.09766,-1.29687 -3.19922,-3.19922 -3.19922,-3.19922c0,0 -0.5,0 -1.69922,0c-0.10156,0 0.39844,1.40234 0.5,1.60156c0,0.09766 0,0.39844 0,0.39844c0,0 0.60156,0.19922 0.69922,0.40234c0.19922,0.39844 -0.80078,1.59766 -0.80078,1.59766c0,0 -0.5,-0.5 -0.59766,-1.5c0,0 0,-0.09766 -0.19922,-0.19922c-0.10156,0 -0.30078,-0.19922 -0.30078,-0.39844c-0.30078,-1 -0.5,-1.70312 -0.5,-2.10156c-0.10156,-0.39844 -0.10156,-0.60156 0,-0.89844c0.09766,-0.30078 0.80078,-0.20312 0.89844,-0.30078c0.69922,-0.10156 1.30078,-0.30078 2.5,-1.19922c0.69922,-0.60156 1.40234,-3.10156 1.5,-3.80078c0.90234,0 1.19922,-0.40234 1.40234,-1.5c-0.5,0.80078 -0.80078,1 -1.10156,1c-0.80078,0 -1.30078,-0.5 -1.80078,-0.5c-0.30078,0 -0.69922,0.30078 -0.89844,0.30078c-0.60156,0 -0.80078,-0.40234 -0.69922,-0.90234c0,-0.19922 0.09766,-0.39844 0.29688,-0.59766c0.40234,-0.40234 0.60156,0 2.10156,-0.60156c0.30078,-0.19922 0.39844,-0.89844 1.60156,-0.89844c0,-0.5 0.19922,-0.80078 0.39844,-1c0.10156,0.19922 0.39844,0.89844 0.60156,1c0.5,0 0.69922,1 2,1c-0.20312,0.19922 -0.60156,0.39844 -0.90234,0.39844c0.10156,0.19922 1,0.60156 1.40234,1c-0.40234,0.10156 -1.20312,0 -1.40234,0c0.69922,0.5 1.60156,1 1.80078,1.60156c-0.39844,-0.30078 -1.39844,-0.40234 -1.69922,-0.40234c0.30078,0.40234 0.89844,1 1.69922,1.30078c-1,0.19922 -1.30078,0.10156 -1.69922,0c0.19922,0.60156 1,1 1.5,1.19922c-0.5,0.19922 -1.60156,0 -1.80078,-0.19922c0.19922,0.39844 1.10156,1.10156 1.80078,1.39844c-0.40234,0.20313 -1.69922,-0.09766 -2,-0.29687c0.19922,0.29688 0.89844,0.79688 1.19922,1c-0.39844,0 -1.10156,0 -1.39844,-0.30078c-0.20312,0.5 0.39844,1.59766 1.5,2.30078c2.39844,1.39844 2.19922,2.29688 2.29688,2.69922c-0.09766,0.30078 0.20313,0.30078 0.30078,0.19922c0.30078,-0.60156 0.40234,-0.39844 0.40234,-4c0,-1.39844 0.5,-1.80078 0.89844,-2c0,0 -0.69922,1.19922 -0.30078,2c0.10156,-0.80078 1.10156,-1.39844 1.10156,-1.39844c0,0 -0.69922,1.5 -0.60156,2.39844c0,0 0,0.5 0.80078,-0.39844c-0.39844,2.29688 -0.10156,4.39844 -2.69922,4.39844zM40,13.27734c-4.80859,-1.63672 -9.84375,-2.47656 -15,-2.47656c-6.70703,0 -11.91016,1.35938 -15,2.44531v-2.41797l15,-2.8125l15,2.8125zM25,5.98047l-15,2.81641v-1.96875l15,-2.8125l15,2.8125v1.96875z"></path></g></g></svg>